<svg width="527" height="301" viewBox="0 0 527 301" fill="none" xmlns="http://www.w3.org/2000/svg">
<path d="M499.458 296.551C499.458 297.866 499.446 299.178 499.425 300.488H27.5754C27.553 299.178 27.543 297.866 27.543 296.551C27.543 166.234 133.184 60.5927 263.501 60.5927C393.818 60.5927 499.458 166.234 499.458 296.551Z" fill="#589D8E" fill-opacity="0.3"/>
<path d="M79.2072 300.807C78.6852 300.807 78.2581 300.387 78.2519 299.864L78.2494 299.713C78.2394 298.926 78.2344 298.124 78.2344 297.331C78.2344 295.881 78.2519 294.411 78.2856 292.961C78.2981 292.433 78.7389 292.014 79.2634 292.027C79.7916 292.04 80.2088 292.477 80.1975 293.005C80.1638 294.44 80.1476 295.895 80.1476 297.33C80.1476 298.114 80.1526 298.908 80.1626 299.688L80.165 299.837C80.1725 300.366 79.7492 300.799 79.2222 300.807C79.2147 300.807 79.2109 300.807 79.2072 300.807ZM446.087 286.11C445.588 286.11 445.167 285.723 445.135 285.218C444.985 282.952 444.792 280.662 444.56 278.41C444.506 277.884 444.887 277.415 445.413 277.361C445.94 277.306 446.408 277.688 446.462 278.214C446.697 280.49 446.892 282.804 447.043 285.091C447.078 285.618 446.678 286.073 446.151 286.108C446.13 286.109 446.109 286.11 446.087 286.11ZM79.7142 284.338C79.6905 284.338 79.6655 284.337 79.6418 284.336C79.1148 284.296 78.7202 283.838 78.7601 283.311C78.9325 281.024 79.1498 278.712 79.4058 276.438C79.4645 275.914 79.9378 275.537 80.4635 275.595C80.988 275.654 81.3652 276.127 81.3065 276.653C81.053 278.904 80.8369 281.191 80.6671 283.454C80.6284 283.956 80.21 284.338 79.7142 284.338ZM444.273 269.736C443.81 269.736 443.404 269.399 443.33 268.928C442.98 266.688 442.582 264.424 442.149 262.201C442.048 261.682 442.386 261.18 442.904 261.079C443.423 260.978 443.925 261.316 444.026 261.835C444.464 264.081 444.866 266.369 445.22 268.633C445.301 269.155 444.945 269.644 444.423 269.726C444.373 269.732 444.323 269.736 444.273 269.736ZM81.6849 267.981C81.6324 267.981 81.58 267.978 81.5263 267.969C81.0055 267.883 80.6533 267.389 80.7395 266.869C81.1154 264.607 81.54 262.324 81.9996 260.081C82.1057 259.564 82.6115 259.231 83.1285 259.337C83.6455 259.443 83.9789 259.949 83.8728 260.466C83.417 262.685 82.9974 264.944 82.6252 267.182C82.549 267.65 82.1444 267.981 81.6849 267.981ZM441 253.589C440.571 253.589 440.182 253.299 440.073 252.864C439.522 250.664 438.923 248.446 438.29 246.271C438.142 245.764 438.433 245.233 438.94 245.086C439.448 244.938 439.978 245.229 440.126 245.736C440.765 247.935 441.371 250.177 441.928 252.4C442.056 252.912 441.744 253.431 441.232 253.559C441.155 253.58 441.076 253.589 441 253.589ZM85.1191 251.868C85.0392 251.868 84.958 251.858 84.8768 251.837C84.3661 251.703 84.0601 251.181 84.1925 250.67C84.7707 248.455 85.3988 246.218 86.0607 244.024C86.2131 243.518 86.7463 243.232 87.2521 243.385C87.7579 243.537 88.0438 244.07 87.8915 244.576C87.2371 246.746 86.6152 248.959 86.0432 251.152C85.9308 251.583 85.5437 251.868 85.1191 251.868ZM436.282 237.804C435.886 237.804 435.516 237.556 435.379 237.162C434.632 235.023 433.835 232.867 433.007 230.755C432.815 230.263 433.057 229.709 433.549 229.517C434.041 229.324 434.596 229.566 434.788 230.059C435.624 232.193 436.43 234.371 437.185 236.532C437.358 237.031 437.096 237.576 436.596 237.75C436.493 237.786 436.387 237.804 436.282 237.804ZM90.0007 236.109C89.8933 236.109 89.7834 236.09 89.6773 236.052C89.1803 235.873 88.923 235.325 89.1016 234.828C89.8796 232.667 90.7101 230.493 91.5693 228.363C91.7666 227.873 92.3235 227.636 92.8131 227.834C93.3026 228.032 93.5399 228.589 93.3426 229.078C92.4921 231.186 91.6704 233.339 90.9011 235.476C90.7588 235.867 90.3916 236.109 90.0007 236.109ZM430.166 222.526C429.803 222.526 429.456 222.317 429.295 221.964C428.362 219.907 427.375 217.838 426.364 215.812C426.128 215.34 426.319 214.765 426.792 214.529C427.264 214.293 427.839 214.485 428.075 214.958C429.097 217.005 430.094 219.096 431.037 221.174C431.255 221.655 431.042 222.222 430.561 222.439C430.432 222.498 430.299 222.526 430.166 222.526ZM96.291 220.846C96.1562 220.846 96.0188 220.817 95.8877 220.756C95.4094 220.533 95.2021 219.964 95.4256 219.486C96.3947 217.408 97.4162 215.317 98.464 213.274C98.705 212.805 99.2807 212.619 99.7515 212.86C100.221 213.101 100.407 213.677 100.166 214.147C99.1296 216.17 98.1168 218.238 97.159 220.295C96.9966 220.641 96.6507 220.846 96.291 220.846ZM422.705 207.87C422.371 207.87 422.048 207.696 421.872 207.385C420.756 205.418 419.588 203.444 418.397 201.517C418.12 201.067 418.259 200.479 418.708 200.201C419.158 199.923 419.746 200.062 420.025 200.511C421.227 202.458 422.409 204.454 423.535 206.441C423.796 206.9 423.634 207.484 423.175 207.745C423.027 207.83 422.864 207.87 422.705 207.87ZM103.929 206.22C103.765 206.22 103.6 206.179 103.449 206.09C102.992 205.825 102.837 205.24 103.103 204.782C104.256 202.799 105.461 200.811 106.686 198.872C106.968 198.426 107.559 198.292 108.005 198.575C108.451 198.857 108.584 199.447 108.302 199.893C107.09 201.812 105.897 203.78 104.757 205.743C104.579 206.049 104.258 206.22 103.929 206.22ZM413.954 193.934C413.651 193.934 413.353 193.79 413.167 193.522C411.879 191.661 410.537 189.798 409.18 187.983C408.864 187.561 408.95 186.962 409.372 186.645C409.796 186.327 410.394 186.415 410.711 186.837C412.083 188.669 413.438 190.552 414.741 192.433C415.042 192.867 414.933 193.463 414.499 193.763C414.331 193.879 414.141 193.934 413.954 193.934ZM112.844 192.344C112.653 192.344 112.461 192.287 112.292 192.168C111.861 191.863 111.759 191.266 112.064 190.836C113.387 188.965 114.765 187.094 116.158 185.272C116.479 184.853 117.08 184.774 117.498 185.094C117.918 185.415 117.998 186.014 117.677 186.434C116.298 188.236 114.935 190.088 113.623 191.938C113.44 192.204 113.144 192.344 112.844 192.344ZM403.987 180.829C403.714 180.829 403.442 180.711 403.252 180.485C401.801 178.745 400.297 177.007 398.784 175.323C398.43 174.931 398.463 174.325 398.856 173.973C399.248 173.621 399.854 173.652 400.206 174.045C401.736 175.749 403.256 177.503 404.722 179.262C405.06 179.667 405.005 180.271 404.599 180.608C404.421 180.756 404.203 180.829 403.987 180.829ZM122.961 179.328C122.742 179.328 122.521 179.253 122.341 179.099C121.939 178.757 121.891 178.154 122.233 177.752C123.718 176.007 125.256 174.268 126.806 172.579C127.163 172.191 127.767 172.165 128.157 172.522C128.547 172.879 128.572 173.483 128.215 173.873C126.681 175.544 125.159 177.266 123.689 178.992C123.5 179.214 123.232 179.328 122.961 179.328ZM392.887 168.659C392.642 168.659 392.396 168.565 392.21 168.378C390.609 166.772 388.955 165.175 387.297 163.631C386.91 163.272 386.888 162.666 387.248 162.28C387.608 161.893 388.214 161.872 388.599 162.231C390.275 163.791 391.945 165.405 393.563 167.027C393.937 167.4 393.936 168.006 393.562 168.379C393.375 168.565 393.131 168.659 392.887 168.659ZM134.194 167.27C133.947 167.27 133.699 167.174 133.512 166.984C133.142 166.607 133.147 166.003 133.525 165.632C135.158 164.029 136.844 162.433 138.537 160.889C138.927 160.533 139.533 160.562 139.889 160.951C140.244 161.342 140.216 161.947 139.826 162.303C138.15 163.83 136.48 165.41 134.865 166.997C134.677 167.179 134.435 167.27 134.194 167.27ZM380.741 157.521C380.523 157.521 380.306 157.447 380.127 157.297C378.389 155.841 376.599 154.396 374.809 153.005C374.392 152.682 374.317 152.081 374.64 151.664C374.964 151.247 375.564 151.171 375.981 151.495C377.792 152.902 379.6 154.36 381.356 155.833C381.761 156.172 381.815 156.774 381.475 157.18C381.285 157.405 381.014 157.521 380.741 157.521ZM146.451 156.266C146.175 156.266 145.9 156.147 145.712 155.916C145.377 155.508 145.436 154.906 145.844 154.571C147.612 153.12 149.434 151.683 151.258 150.297C151.679 149.977 152.278 150.059 152.598 150.479C152.917 150.9 152.835 151.499 152.415 151.819C150.611 153.19 148.809 154.614 147.058 156.05C146.878 156.195 146.665 156.266 146.451 156.266ZM367.645 147.508C367.457 147.508 367.267 147.452 367.1 147.337C365.237 146.041 363.325 144.762 361.415 143.535C360.971 143.251 360.842 142.659 361.127 142.214C361.413 141.77 362.003 141.641 362.448 141.926C364.377 143.165 366.309 144.457 368.191 145.767C368.625 146.069 368.732 146.665 368.43 147.098C368.245 147.364 367.948 147.508 367.645 147.508ZM159.634 146.403C159.328 146.403 159.028 146.257 158.842 145.984C158.545 145.547 158.658 144.953 159.094 144.656C160.986 143.368 162.928 142.099 164.864 140.884C165.311 140.603 165.901 140.739 166.181 141.186C166.462 141.633 166.327 142.224 165.879 142.504C163.962 143.706 162.041 144.963 160.168 146.237C160.006 146.349 159.82 146.403 159.634 146.403ZM173.638 137.762C173.302 137.762 172.976 137.585 172.801 137.271C172.544 136.811 172.71 136.227 173.172 135.971C175.169 134.86 177.216 133.77 179.253 132.734C179.723 132.495 180.299 132.682 180.538 133.153C180.777 133.624 180.59 134.199 180.119 134.438C178.102 135.463 176.078 136.541 174.101 137.642C173.955 137.723 173.795 137.762 173.638 137.762ZM339.015 131.178C338.883 131.178 338.748 131.151 338.618 131.092C336.551 130.148 334.438 129.231 332.338 128.367C331.849 128.166 331.617 127.608 331.818 127.12C332.019 126.631 332.577 126.399 333.066 126.6C335.189 127.474 337.323 128.401 339.412 129.354C339.893 129.574 340.104 130.141 339.884 130.62C339.724 130.971 339.377 131.178 339.015 131.178ZM188.351 130.417C187.985 130.417 187.636 130.204 187.477 129.848C187.262 129.366 187.48 128.801 187.963 128.587C190.05 127.66 192.184 126.76 194.305 125.911C194.795 125.715 195.351 125.953 195.547 126.444C195.743 126.935 195.505 127.491 195.014 127.687C192.915 128.526 190.804 129.418 188.739 130.334C188.614 130.39 188.481 130.417 188.351 130.417ZM307.908 120.252C307.831 120.252 307.752 120.242 307.673 120.224C305.477 119.669 303.238 119.148 301.02 118.676C300.503 118.567 300.173 118.058 300.283 117.543C300.393 117.025 300.9 116.696 301.417 116.806C303.659 117.283 305.921 117.809 308.141 118.369C308.653 118.498 308.962 119.019 308.834 119.531C308.725 119.963 308.335 120.252 307.908 120.252ZM219.498 119.829C219.067 119.829 218.675 119.536 218.569 119.097C218.445 118.584 218.76 118.067 219.273 117.943C221.499 117.405 223.767 116.902 226.012 116.447C226.53 116.342 227.034 116.677 227.138 117.194C227.243 117.711 226.909 118.216 226.392 118.321C224.17 118.77 221.926 119.268 219.723 119.802C219.648 119.82 219.573 119.829 219.498 119.829ZM291.767 116.946C291.717 116.946 291.667 116.942 291.616 116.933C289.377 116.578 287.1 116.262 284.85 115.991C284.326 115.929 283.952 115.452 284.015 114.929C284.077 114.404 284.553 114.031 285.077 114.093C287.351 114.367 289.652 114.686 291.915 115.044C292.437 115.126 292.793 115.616 292.71 116.138C292.636 116.61 292.229 116.946 291.767 116.946ZM235.67 116.682C235.205 116.682 234.796 116.341 234.726 115.867C234.649 115.345 235.01 114.858 235.532 114.78C237.795 114.444 240.099 114.147 242.377 113.896C242.901 113.837 243.374 114.217 243.432 114.741C243.489 115.266 243.111 115.739 242.586 115.797C240.331 116.045 238.052 116.34 235.811 116.672C235.764 116.678 235.717 116.682 235.67 116.682ZM275.395 115.104C275.374 115.104 275.352 115.102 275.33 115.101C273.071 114.949 270.776 114.836 268.507 114.768C267.979 114.751 267.564 114.311 267.58 113.784C267.596 113.255 268.033 112.837 268.564 112.857C270.856 112.927 273.175 113.039 275.458 113.193C275.985 113.228 276.383 113.684 276.347 114.211C276.314 114.716 275.895 115.104 275.395 115.104ZM252.059 114.996C251.555 114.996 251.134 114.604 251.105 114.096C251.073 113.569 251.477 113.117 252.004 113.085C254.288 112.953 256.609 112.861 258.902 112.813C258.908 112.813 258.916 112.813 258.923 112.813C259.442 112.813 259.867 113.228 259.879 113.749C259.89 114.277 259.472 114.714 258.943 114.725C256.674 114.773 254.376 114.864 252.116 114.995C252.096 114.996 252.077 114.996 252.059 114.996Z" fill="white"/>
<path d="M10.5787 300.488H3.77643C1.6909 300.488 0 298.797 0 296.712V296.136C0 294.05 1.6909 292.36 3.77643 292.36H10.5787C12.6643 292.36 14.3552 294.05 14.3552 296.136V296.712C14.3564 298.797 12.6655 300.488 10.5787 300.488Z" fill="#111111"/>
<path d="M502.939 300.488H24.0655C21.98 300.488 20.2891 298.797 20.2891 296.712V296.136C20.2891 294.05 21.98 292.36 24.0655 292.36H502.939C505.024 292.36 506.715 294.05 506.715 296.136V296.712C506.716 298.797 505.025 300.488 502.939 300.488Z" fill="#111111"/>
<path d="M10.5787 300.488H3.77643C1.6909 300.488 0 298.797 0 296.712V296.136C0 294.05 1.6909 292.36 3.77643 292.36H10.5787C12.6643 292.36 14.3552 294.05 14.3552 296.136V296.712C14.3564 298.797 12.6655 300.488 10.5787 300.488Z" fill="#111111"/>
<path d="M523.223 300.488H516.421C514.335 300.488 512.645 298.797 512.645 296.712V296.136C512.645 294.05 514.335 292.36 516.421 292.36H523.223C525.309 292.36 527 294.05 527 296.136V296.712C527 298.797 525.309 300.488 523.223 300.488Z" fill="#111111"/>
<path d="M41.2427 127.196H44.8718C45.3875 127.196 45.8059 127.614 45.8059 128.13C45.8059 128.646 45.3875 129.064 44.8718 129.064H41.2427C40.7269 129.064 40.3086 128.646 40.3086 128.13C40.3086 127.873 40.4135 127.639 40.5821 127.469C40.7507 127.301 40.9842 127.196 41.2427 127.196Z" fill="#2B3872"/>
<path d="M54.7942 128.114C54.7992 128.377 54.693 128.617 54.5207 128.791C54.3521 128.959 54.1186 129.064 53.8601 129.064H50.231C49.7152 129.064 49.2969 128.646 49.2969 128.13C49.2969 127.614 49.7152 127.196 50.231 127.196H53.8376C54.3508 127.196 54.7854 127.6 54.7942 128.114Z" fill="#2B3872"/>
<path d="M48.4854 121.82V125.449C48.4854 125.964 48.0671 126.383 47.5513 126.383C47.0355 126.383 46.6172 125.964 46.6172 125.449V121.82C46.6172 121.304 47.0355 120.885 47.5513 120.885C47.8098 120.885 48.0433 120.99 48.2119 121.159C48.3805 121.328 48.4854 121.561 48.4854 121.82Z" fill="#2B3872"/>
<path d="M47.5513 129.877C48.0671 129.877 48.4854 130.295 48.4854 130.811V134.44C48.4854 134.956 48.0671 135.374 47.5513 135.374C47.294 135.374 47.0605 135.269 46.8907 135.101C46.7208 134.932 46.6172 134.699 46.6172 134.44V130.811C46.6172 130.294 47.0355 129.877 47.5513 129.877Z" fill="#2B3872"/>
<path d="M148.307 12.447C145.667 12.447 143.527 14.5874 143.527 17.2262C143.527 19.8662 145.668 22.0054 148.307 22.0054C150.947 22.0054 153.086 19.8649 153.086 17.2262C153.087 14.5874 150.947 12.447 148.307 12.447ZM148.307 20.4831C146.508 20.4831 145.051 19.0257 145.051 17.2274C145.051 15.4291 146.508 13.9718 148.307 13.9718C150.105 13.9718 151.562 15.4291 151.562 17.2274C151.563 19.0257 150.105 20.4831 148.307 20.4831Z" fill="#2B3872"/>
<path d="M136.422 230.709H140.051C140.567 230.709 140.986 231.128 140.986 231.643C140.986 232.159 140.567 232.577 140.051 232.577H136.422C135.907 232.577 135.488 232.159 135.488 231.643C135.488 231.386 135.593 231.153 135.762 230.983C135.932 230.814 136.164 230.709 136.422 230.709Z" fill="#2B3872"/>
<path d="M149.974 231.627C149.979 231.891 149.873 232.13 149.7 232.304C149.532 232.473 149.298 232.577 149.04 232.577H145.411C144.895 232.577 144.477 232.159 144.477 231.643C144.477 231.128 144.895 230.709 145.411 230.709H149.017C149.531 230.709 149.965 231.114 149.974 231.627Z" fill="#2B3872"/>
<path d="M143.665 225.333V228.962C143.665 229.478 143.247 229.896 142.731 229.896C142.215 229.896 141.797 229.478 141.797 228.962V225.333C141.797 224.817 142.215 224.399 142.731 224.399C142.989 224.399 143.223 224.504 143.392 224.672C143.561 224.841 143.665 225.075 143.665 225.333Z" fill="#2B3872"/>
<path d="M142.731 233.39C143.247 233.39 143.665 233.809 143.665 234.325V237.954C143.665 238.469 143.247 238.888 142.731 238.888C142.474 238.888 142.24 238.783 142.07 238.614C141.901 238.446 141.797 238.212 141.797 237.954V234.325C141.797 233.808 142.215 233.39 142.731 233.39Z" fill="#2B3872"/>
<path d="M49.4307 264.924C46.5434 264.924 44.2031 267.265 44.2031 270.152C44.2031 273.039 46.5434 275.379 49.4307 275.379C52.3179 275.379 54.6582 273.039 54.6582 270.152C54.6582 267.265 52.3167 264.924 49.4307 264.924ZM49.4307 273.055C47.8272 273.055 46.5272 271.755 46.5272 270.152C46.5272 268.548 47.8272 267.248 49.4307 267.248C51.0342 267.248 52.3342 268.548 52.3342 270.152C52.3342 271.755 51.0342 273.055 49.4307 273.055Z" fill="#2B3872"/>
<path d="M361.437 277.601H365.732C366.343 277.601 366.837 278.095 366.837 278.706C366.837 279.317 366.343 279.811 365.732 279.811H361.437C360.828 279.811 360.332 279.317 360.332 278.706C360.332 278.401 360.456 278.125 360.655 277.926C360.855 277.725 361.131 277.601 361.437 277.601Z" fill="#2B3872"/>
<path d="M377.473 278.687C377.478 279 377.354 279.283 377.149 279.488C376.949 279.688 376.673 279.811 376.369 279.811H372.074C371.463 279.811 370.969 279.317 370.969 278.706C370.969 278.095 371.463 277.601 372.074 277.601H376.341C376.948 277.601 377.463 278.079 377.473 278.687Z" fill="#2B3872"/>
<path d="M370.007 271.239V275.533C370.007 276.144 369.513 276.638 368.902 276.638C368.291 276.638 367.797 276.144 367.797 275.533V271.239C367.797 270.629 368.291 270.134 368.902 270.134C369.208 270.134 369.484 270.258 369.684 270.458C369.884 270.659 370.007 270.935 370.007 271.239Z" fill="#2B3872"/>
<path d="M368.905 280.773C369.515 280.773 370.01 281.267 370.01 281.878V286.173C370.01 286.782 369.515 287.278 368.905 287.278C368.6 287.278 368.324 287.154 368.124 286.955C367.924 286.755 367.801 286.479 367.801 286.174V281.879C367.8 281.267 368.294 280.773 368.905 280.773Z" fill="#2B3872"/>
<path d="M408.985 144.641C406.098 144.641 403.758 146.981 403.758 149.868C403.758 152.755 406.098 155.096 408.985 155.096C411.873 155.096 414.213 152.755 414.213 149.868C414.213 146.981 411.871 144.641 408.985 144.641ZM408.985 152.772C407.382 152.772 406.082 151.472 406.082 149.868C406.082 148.265 407.382 146.965 408.985 146.965C410.589 146.965 411.889 148.265 411.889 149.868C411.889 151.472 410.589 152.772 408.985 152.772Z" fill="#2B3872"/>
<path d="M296.903 6.47638H300.628C301.158 6.47638 301.586 6.90597 301.586 7.43422C301.586 7.96372 301.157 8.39207 300.628 8.39207H296.903C296.374 8.39207 295.945 7.96372 295.945 7.43422C295.945 7.16947 296.053 6.9297 296.226 6.75736C296.4 6.58378 296.64 6.47638 296.903 6.47638Z" fill="#2B3872"/>
<path d="M310.813 7.41796C310.818 7.68896 310.709 7.93497 310.532 8.11231C310.358 8.28589 310.118 8.39329 309.855 8.39329H306.13C305.6 8.39329 305.172 7.9637 305.172 7.43545C305.172 6.90595 305.601 6.4776 306.13 6.4776H309.831C310.358 6.47635 310.804 6.89096 310.813 7.41796Z" fill="#2B3872"/>
<path d="M304.336 0.957843V4.68307C304.336 5.21257 303.907 5.64091 303.377 5.64091C302.848 5.64091 302.418 5.21132 302.418 4.68307V0.957843C302.418 0.428345 302.848 0 303.376 0C303.641 0 303.88 0.107398 304.054 0.280984C304.229 0.453321 304.336 0.693094 304.336 0.957843Z" fill="#2B3872"/>
<path d="M303.38 9.22748C303.909 9.22748 304.339 9.65707 304.339 10.1866V13.9118C304.339 14.4413 303.909 14.8696 303.38 14.8696C303.115 14.8696 302.875 14.7622 302.703 14.5887C302.529 14.4151 302.422 14.1753 302.422 13.9118V10.1853C302.422 9.65582 302.85 9.22748 303.38 9.22748Z" fill="#2B3872"/>
<path d="M497.977 203.03H501.606C502.122 203.03 502.54 203.449 502.54 203.964C502.54 204.48 502.122 204.899 501.606 204.899H497.977C497.461 204.899 497.043 204.48 497.043 203.964C497.043 203.707 497.148 203.474 497.316 203.304C497.486 203.135 497.72 203.03 497.977 203.03Z" fill="#2B3872"/>
<path d="M511.529 203.948C511.534 204.212 511.427 204.451 511.255 204.625C511.086 204.794 510.853 204.899 510.594 204.899H506.965C506.45 204.899 506.031 204.48 506.031 203.964C506.031 203.449 506.45 203.03 506.965 203.03H510.572C511.086 203.03 511.52 203.435 511.529 203.948Z" fill="#2B3872"/>
<path d="M505.22 197.654V201.283C505.22 201.799 504.801 202.217 504.286 202.217C503.77 202.217 503.352 201.799 503.352 201.283V197.654C503.352 197.138 503.77 196.72 504.286 196.72C504.544 196.72 504.778 196.825 504.946 196.993C505.115 197.163 505.22 197.396 505.22 197.654Z" fill="#2B3872"/>
<path d="M504.286 205.711C504.801 205.711 505.22 206.13 505.22 206.646V210.275C505.22 210.79 504.801 211.209 504.286 211.209C504.028 211.209 503.795 211.104 503.625 210.935C503.455 210.767 503.352 210.533 503.352 210.275V206.646C503.352 206.129 503.77 205.711 504.286 205.711Z" fill="#2B3872"/>
<path d="M397.255 86.1663C397.034 85.0037 395.907 84.2381 394.745 84.4579L364.953 90.1226L364.934 90.1263L364.928 90.1276C364.884 90.1363 364.84 90.1475 364.798 90.1588L364.783 90.1625C364.764 90.1675 364.745 90.1713 364.728 90.1775C364.707 90.1838 364.685 90.1912 364.664 90.2L364.646 90.2062C364.361 90.3049 364.106 90.4585 363.887 90.6633L363.879 90.672C363.866 90.6833 363.854 90.6945 363.841 90.7058C363.828 90.7195 363.815 90.7332 363.803 90.747L363.793 90.7582C363.645 90.9143 363.522 91.0904 363.427 91.284L363.418 91.3027C363.403 91.3327 363.388 91.3626 363.374 91.3951C363.368 91.4101 363.363 91.4251 363.357 91.4388L363.353 91.4488C363.336 91.495 363.318 91.54 363.303 91.5874L363.301 91.5937L347.908 142.091L180.296 142.042C179.631 142.042 178.991 142.358 178.588 142.888C178.185 143.417 178.05 144.116 178.226 144.76L203.007 234.622C203.263 235.55 204.114 236.198 205.075 236.198C205.082 236.198 205.088 236.198 205.093 236.198L322.085 236.232H322.108C322.115 236.232 322.12 236.232 322.126 236.232L332.568 236.236C337.481 236.237 341.068 237.527 343.228 240.069C345.089 242.259 346.032 245.501 346.031 249.707C346.028 257.132 339.985 263.171 332.56 263.169L174.522 263.123C173.338 263.123 172.375 264.085 172.375 265.268C172.375 266.452 173.338 267.415 174.522 267.415L332.56 267.461C334.138 267.461 335.685 267.256 337.173 266.859C340.146 266.064 342.875 264.496 345.114 262.257C348.473 258.9 350.324 254.443 350.325 249.707C350.327 244.454 349.04 240.275 346.501 237.288C343.488 233.743 338.801 231.943 332.571 231.942L325.006 231.94L367.026 94.0988L395.548 88.6764C396.111 88.569 396.599 88.2493 396.921 87.7748C397.243 87.3002 397.362 86.7295 397.255 86.1663ZM346.599 146.384L340.874 165.163L311.33 165.154L314.647 146.374L346.599 146.384ZM340.156 167.521L333.918 187.981L307.3 187.974L310.914 167.512L340.156 167.521ZM266.128 165.14L266.133 146.361L312.251 146.374L308.935 165.154L266.128 165.14ZM326.243 213.16L320.519 231.938L299.535 231.932L302.852 213.152L326.243 213.16ZM266.121 187.962L266.128 167.499L308.52 167.512L304.906 187.974L266.121 187.962ZM266.115 210.785L266.121 190.321L304.489 190.333L300.875 210.795L266.115 210.785ZM333.2 190.34L326.964 210.801L303.27 210.793L306.884 190.331L333.2 190.34ZM300.458 213.152L297.141 231.932L266.109 231.923L266.114 213.144L300.458 213.152ZM229.068 213.132L232.373 231.913L206.713 231.906L201.532 213.124L229.068 213.132ZM263.761 190.32L263.755 210.783L231.047 210.773L227.445 190.309L263.761 190.32ZM225.05 190.309L228.652 210.773L200.882 210.766L195.238 190.301L225.05 190.309ZM263.769 167.499L263.762 187.962L227.031 187.951L223.428 167.487L263.769 167.499ZM221.033 167.487L224.636 187.951L194.589 187.942L188.946 167.478L221.033 167.487ZM263.775 146.359L263.77 165.139L223.013 165.127L219.708 146.346L263.775 146.359ZM220.618 165.128L188.295 165.118L183.115 146.336L217.311 146.346L220.618 165.128ZM263.755 213.142L263.75 231.923L234.77 231.915L231.464 213.134L263.755 213.142Z" fill="#111111" stroke="#111111" stroke-width="0.249764" stroke-miterlimit="10"/>
<path d="M215.03 270.579C209.045 270.578 204.173 275.446 204.172 281.432C204.171 287.417 209.039 292.289 215.024 292.29C215.994 292.29 216.936 292.163 217.831 291.923C222.461 290.684 225.881 286.453 225.883 281.438C225.884 278.543 224.754 275.817 222.702 273.764C220.65 271.712 217.925 270.581 215.03 270.579ZM215.025 287.998C213.276 287.998 211.629 287.313 210.388 286.072C209.148 284.831 208.465 283.184 208.465 281.434C208.467 278.402 210.533 275.844 213.332 275.095C213.874 274.95 214.442 274.873 215.029 274.873C218.648 274.874 221.59 277.819 221.589 281.437C221.589 283.186 220.905 284.833 219.663 286.073C218.422 287.316 216.775 287.999 215.025 287.998Z" fill="#111111" stroke="#111111" stroke-width="0.249764" stroke-miterlimit="10"/>
<path d="M307.671 270.607C301.685 270.606 296.814 275.473 296.813 281.459C296.811 284.354 297.941 287.08 299.993 289.133C302.045 291.186 304.77 292.317 307.665 292.319C308.635 292.319 309.577 292.191 310.472 291.952C315.101 290.713 318.522 286.482 318.523 281.466C318.524 275.48 313.657 270.609 307.671 270.607ZM307.666 288.025C304.047 288.024 301.105 285.079 301.106 281.461C301.107 278.429 303.174 275.872 305.973 275.122C306.515 274.978 307.083 274.9 307.67 274.9C311.289 274.901 314.231 277.846 314.23 281.464C314.229 285.083 311.284 288.025 307.666 288.025Z" fill="#111111" stroke="#111111" stroke-width="0.249764" stroke-miterlimit="10"/>
<path d="M307.671 277.25C306.547 277.25 305.49 277.689 304.693 278.484C303.897 279.281 303.458 280.338 303.457 281.461C303.456 283.784 305.345 285.675 307.668 285.675C308.045 285.675 308.41 285.625 308.757 285.533C310.554 285.052 311.88 283.41 311.882 281.464C311.883 279.141 309.993 277.25 307.671 277.25ZM307.669 283.316C307.175 283.316 306.71 283.122 306.359 282.772C306.008 282.421 305.816 281.956 305.816 281.461C305.816 280.605 306.4 279.883 307.191 279.671C307.343 279.629 307.504 279.608 307.671 279.608C308.165 279.608 308.63 279.802 308.981 280.153C309.331 280.504 309.524 280.968 309.524 281.463C309.523 282.486 308.692 283.317 307.669 283.316Z" fill="#111111" stroke="#111111" stroke-width="0.249764" stroke-miterlimit="10"/>
<path d="M215.026 277.223C212.703 277.223 210.812 279.111 210.812 281.434C210.812 283.757 212.701 285.647 215.024 285.647C215.401 285.647 215.765 285.598 216.112 285.505C217.91 285.024 219.236 283.382 219.237 281.436C219.237 280.313 218.799 279.255 218.003 278.458C217.208 277.663 216.15 277.223 215.026 277.223ZM215.025 283.29C214.53 283.29 214.066 283.096 213.715 282.745C213.364 282.394 213.172 281.93 213.172 281.435C213.172 280.579 213.756 279.857 214.546 279.644C214.699 279.603 214.86 279.582 215.026 279.582C216.049 279.582 216.879 280.414 216.879 281.436C216.879 281.931 216.686 282.396 216.335 282.746C215.984 283.096 215.519 283.29 215.025 283.29Z" fill="#111111" stroke="#111111" stroke-width="0.249764" stroke-miterlimit="10"/>
<path d="M191.465 231.45C191.568 231.45 191.67 231.436 191.77 231.41C191.774 231.409 191.777 231.408 191.781 231.408C192.408 231.234 192.776 230.583 192.604 229.956L182.432 193.163C182.349 192.858 182.15 192.604 181.877 192.449C181.603 192.295 181.286 192.257 180.983 192.34C180.356 192.513 179.987 193.164 180.16 193.791L190.331 230.585C190.47 231.094 190.937 231.45 191.465 231.45Z" fill="#111111" stroke="#111111" stroke-width="0.249764" stroke-miterlimit="10"/>
<path d="M172.129 197.145C172.432 197.061 172.686 196.864 172.84 196.589C172.995 196.316 173.035 195.997 172.952 195.694L167.165 174.762C167.081 174.459 166.884 174.205 166.609 174.049C166.335 173.895 166.013 173.855 165.713 173.939C165.41 174.023 165.156 174.22 165.002 174.495C164.847 174.769 164.807 175.087 164.89 175.391L170.677 196.322C170.819 196.832 171.286 197.187 171.814 197.187C171.916 197.187 172.019 197.174 172.119 197.147C172.121 197.147 172.125 197.146 172.129 197.145Z" fill="#111111" stroke="#111111" stroke-width="0.249764" stroke-miterlimit="10"/>
<path d="M176.201 213.05C176.303 213.05 176.405 213.036 176.505 213.01C176.509 213.009 176.513 213.007 176.517 213.007C176.82 212.924 177.074 212.726 177.228 212.452C177.383 212.178 177.423 211.86 177.34 211.556L174.327 200.659C174.244 200.356 174.046 200.102 173.773 199.947C173.499 199.791 173.18 199.754 172.878 199.836C172.574 199.92 172.321 200.117 172.166 200.392C172.011 200.665 171.971 200.984 172.055 201.287L175.067 212.184C175.205 212.694 175.672 213.05 176.201 213.05Z" fill="#111111" stroke="#111111" stroke-width="0.249764" stroke-miterlimit="10"/>
<path d="M317.634 111.783C317.482 111.783 317.327 111.74 317.191 111.65C316.816 111.404 316.711 110.902 316.957 110.528C318.209 108.62 319.404 106.634 320.513 104.627C320.73 104.235 321.223 104.093 321.615 104.31C322.008 104.526 322.15 105.021 321.933 105.413C320.805 107.456 319.587 109.476 318.314 111.418C318.157 111.654 317.899 111.783 317.634 111.783ZM325.292 97.5064C325.186 97.5064 325.077 97.4851 324.972 97.4402C324.56 97.2641 324.37 96.787 324.546 96.3749C325.448 94.2732 326.281 92.109 327.023 89.9448C327.168 89.5214 327.63 89.2954 328.053 89.4403C328.476 89.5851 328.702 90.0472 328.558 90.4705C327.802 92.6722 326.954 94.8739 326.037 97.0131C325.905 97.3215 325.605 97.5064 325.292 97.5064ZM330.356 82.1159C330.295 82.1159 330.232 82.1084 330.17 82.0947C329.734 81.9923 329.463 81.5565 329.565 81.1194C329.955 79.461 330.301 77.7713 330.596 76.0991C330.628 75.9106 330.661 75.7282 330.689 75.5521C329.598 75.7857 328.535 75.9031 327.506 75.9031H327.466C327.018 75.9006 326.657 75.5359 326.659 75.0888C326.662 74.6418 327.024 74.2821 327.47 74.2821C327.471 74.2821 327.472 74.2821 327.474 74.2821H327.506C329.484 74.2821 331.628 73.7876 333.879 72.8135C334.291 72.6349 334.768 72.8247 334.945 73.2356C335.124 73.6465 334.934 74.1247 334.523 74.3021C333.809 74.6118 333.102 74.8765 332.405 75.0963C332.344 75.496 332.274 75.9206 332.193 76.3814C331.893 78.0835 331.541 79.8019 331.144 81.4903C331.058 81.8649 330.724 82.1159 330.356 82.1159ZM319.477 71.9755C319.221 71.9755 318.969 71.8544 318.811 71.6284C317.929 70.3621 317.406 68.9334 317.294 67.4973C317.281 67.3212 317.275 67.1426 317.275 66.964C317.275 66.0561 317.446 65.1495 317.783 64.2716C317.944 63.8532 318.412 63.6447 318.831 63.8058C319.249 63.9669 319.457 64.4352 319.296 64.8535C319.03 65.5454 318.895 66.2559 318.895 66.964C318.895 67.1014 318.9 67.2388 318.91 67.3736C318.999 68.5226 319.424 69.674 320.141 70.7017C320.397 71.0689 320.305 71.5747 319.938 71.8307C319.8 71.9281 319.637 71.9755 319.477 71.9755ZM341.954 69.353C341.729 69.353 341.505 69.2606 341.345 69.0783C341.05 68.7423 341.081 68.2303 341.417 67.9331C343.109 66.4395 344.644 64.7586 345.977 62.9378C346.242 62.5769 346.749 62.4983 347.111 62.763C347.472 63.0278 347.551 63.5348 347.286 63.8969C345.884 65.8126 344.27 67.5797 342.491 69.1507C342.336 69.2856 342.145 69.353 341.954 69.353ZM330.934 66.1773C330.626 66.1773 330.332 66.0012 330.196 65.7027C329.301 63.7371 327.588 62.1386 325.727 61.5317C325.301 61.393 325.068 60.9347 325.207 60.5089C325.346 60.083 325.804 59.8508 326.23 59.9894C328.509 60.7337 330.593 62.6656 331.671 65.0309C331.857 65.438 331.677 65.92 331.269 66.1048C331.161 66.1535 331.046 66.1773 330.934 66.1773Z" fill="#211F44" stroke="#211F44" stroke-width="0.249764" stroke-miterlimit="10"/>
<path d="M408.97 55.9658C408.714 57.0285 407.912 57.9314 406.791 58.2623L369.011 69.4043C368.235 69.6328 367.411 69.5579 366.689 69.1932L349.931 60.7138C349.146 60.3167 348.575 59.6323 348.326 58.7868C348.078 57.9426 348.185 57.0585 348.629 56.2979L358.103 40.082C358.512 39.384 359.164 38.8732 359.939 38.6447L397.72 27.5027C399.392 27.0094 401.153 27.9685 401.646 29.6407L408.929 54.3361C409.091 54.8855 409.096 55.445 408.97 55.9658Z" fill="#589D8E"/>
<path d="M353.788 35.3063L348.215 57.1544C347.773 58.8877 349.005 60.6985 350.779 60.9246L373.146 63.7756C373.806 63.8593 374.462 63.7069 374.998 63.3423L410.36 39.2975C411.63 38.4346 411.914 36.6376 410.995 35.2851L394.199 10.5835C393.279 9.23099 391.504 8.83387 390.234 9.69805L354.873 33.7428C354.336 34.1075 353.952 34.6607 353.788 35.3063ZM360.657 51.451C361.576 52.8023 361.226 54.6418 359.874 55.5609C358.523 56.48 356.684 56.1291 355.764 54.7779C354.845 53.4267 355.196 51.5872 356.547 50.668C357.899 49.7489 359.738 50.0998 360.657 51.451Z" fill="#9CCEC3"/>
<path d="M374.797 39.9748C374.17 39.9748 373.546 39.8462 372.954 39.5902C371.815 39.0969 370.936 38.1902 370.477 37.0363C370.02 35.8824 370.04 34.6186 370.532 33.4797C371.026 32.3408 371.932 31.4616 373.086 31.0045C374.24 30.5475 375.504 30.5674 376.643 31.0595C377.782 31.5528 378.661 32.4594 379.119 33.6133C379.576 34.7672 379.556 36.031 379.064 37.1699C378.571 38.3089 377.664 39.188 376.51 39.6451C375.956 39.8649 375.377 39.9748 374.797 39.9748ZM374.8 32.4132C374.437 32.4132 374.074 32.4819 373.728 32.6193C373.005 32.9052 372.438 33.456 372.13 34.169C371.821 34.8821 371.809 35.6726 372.095 36.3957C372.381 37.1187 372.931 37.6857 373.644 37.9942C374.357 38.3026 375.148 38.3151 375.871 38.0291C376.593 37.7432 377.161 37.1924 377.47 36.4793C377.778 35.7663 377.791 34.9758 377.505 34.2527C377.219 33.5309 376.668 32.9627 375.955 32.6542C375.583 32.4944 375.192 32.4132 374.8 32.4132Z" fill="white"/>
<path d="M376.877 47.4498C376.762 47.4498 376.644 47.4273 376.532 47.3786C376.091 47.1875 375.889 46.6768 376.08 46.2359L383.626 28.7874C383.818 28.3466 384.328 28.1443 384.769 28.3354C385.21 28.5264 385.412 29.0372 385.221 29.478L377.675 46.9265C377.533 47.2537 377.213 47.4498 376.877 47.4498Z" fill="white"/>
<path d="M386.501 45.0386C385.874 45.0386 385.25 44.91 384.658 44.654C382.306 43.6362 381.22 40.8963 382.238 38.5435C383.255 36.192 385.995 35.1055 388.348 36.1233C389.487 36.6166 390.366 37.5232 390.824 38.6771C391.281 39.831 391.261 41.0949 390.769 42.2338C390.276 43.3727 389.369 44.2519 388.216 44.7102C387.659 44.9287 387.079 45.0386 386.501 45.0386ZM386.506 37.4795C385.38 37.4795 384.307 38.1364 383.832 39.2341C383.195 40.7065 383.875 42.4223 385.347 43.0592C386.06 43.3677 386.851 43.3802 387.574 43.0942C388.296 42.8082 388.864 42.2575 389.172 41.5444C389.481 40.8314 389.493 40.0408 389.207 39.3178C388.921 38.596 388.37 38.0278 387.657 37.7193C387.281 37.5557 386.891 37.4795 386.506 37.4795Z" fill="white"/>
<path d="M147.193 106.549L147.278 105.805L147.193 106.549C144.996 106.311 142.878 105.724 140.896 104.803C140.52 104.629 140.358 104.184 140.531 103.808C140.705 103.432 141.151 103.27 141.527 103.444C143.361 104.295 145.319 104.838 147.35 105.058L147.278 105.804L147.193 106.549ZM155.986 105.495C155.68 105.495 155.394 105.307 155.282 105.003C155.14 104.615 155.34 104.184 155.728 104.042C157.635 103.344 159.406 102.341 160.993 101.063C161.315 100.804 161.788 100.855 162.047 101.177C162.307 101.499 162.256 101.971 161.934 102.231C160.219 103.611 158.305 104.694 156.245 105.449C156.158 105.48 156.072 105.495 155.986 105.495ZM134.305 99.4648C134.086 99.4648 133.869 99.3699 133.72 99.185C132.339 97.4704 131.256 95.5572 130.5 93.4979C130.357 93.1095 130.557 92.6787 130.945 92.5363C131.334 92.394 131.765 92.5925 131.907 92.9822C132.606 94.8879 133.609 96.6587 134.888 98.2459C135.148 98.5681 135.097 99.0402 134.774 99.2999C134.636 99.4111 134.47 99.4648 134.305 99.4648ZM166.874 95.4923C166.768 95.4923 166.66 95.4698 166.559 95.4224C166.183 95.2475 166.021 94.8029 166.196 94.427C167.049 92.5913 167.593 90.6294 167.813 88.5963L167.817 88.5638C167.862 88.153 168.23 87.8558 168.642 87.8995C169.053 87.9444 169.352 88.3141 169.307 88.7249L169.304 88.7524C169.066 90.9516 168.477 93.0721 167.556 95.0564C167.427 95.3312 167.156 95.4923 166.874 95.4923ZM130.141 85.282C130.116 85.282 130.09 85.2807 130.064 85.2782C129.652 85.2357 129.353 84.8673 129.394 84.4552L129.397 84.4353C129.634 82.2448 130.22 80.1306 131.139 78.15C131.313 77.7741 131.758 77.6117 132.134 77.7853C132.51 77.9589 132.673 78.4047 132.499 78.7806C131.65 80.6126 131.108 82.5695 130.888 84.5963C130.888 84.6013 130.887 84.6051 130.887 84.6101C130.847 84.996 130.521 85.282 130.141 85.282ZM167.491 80.6875C167.186 80.6875 166.899 80.5002 166.788 80.1968C166.087 78.2911 165.083 76.5215 163.803 74.9355C163.543 74.6133 163.593 74.1412 163.916 73.8815C164.238 73.6217 164.71 73.6717 164.97 73.9939C166.352 75.7073 167.437 77.6205 168.194 79.6785C168.336 80.0669 168.138 80.4977 167.749 80.6401C167.663 80.6726 167.576 80.6875 167.491 80.6875ZM137.225 72.3055C137.006 72.3055 136.789 72.2106 136.64 72.027C136.38 71.7048 136.432 71.2328 136.754 70.973C138.467 69.5918 140.38 68.5066 142.44 67.751C142.828 67.6087 143.259 67.8072 143.401 68.1956C143.544 68.584 143.345 69.0148 142.957 69.1572C141.051 69.8578 139.28 70.8606 137.694 72.1394C137.557 72.2505 137.391 72.3055 137.225 72.3055ZM157.473 69.8116C157.368 69.8116 157.261 69.7891 157.158 69.7417C155.329 68.8937 153.374 68.353 151.349 68.1332L151.326 68.1307C150.914 68.087 150.617 67.7186 150.661 67.3065C150.704 66.8956 151.073 66.5971 151.485 66.6408L151.515 66.6446C153.698 66.8806 155.809 67.4663 157.788 68.3817C158.163 68.5553 158.326 69.0011 158.152 69.377C158.027 69.6505 157.756 69.8116 157.473 69.8116Z" fill="#262F5F"/>
<path d="M118.288 91.6761H118.27C116.052 91.6761 113.84 91.4363 111.693 90.9642C111.288 90.8756 111.033 90.4759 111.122 90.0713C111.211 89.6667 111.61 89.412 112.015 89.5006C114.057 89.9502 116.161 90.1775 118.27 90.1775H118.288C118.701 90.1775 119.037 90.5134 119.037 90.9268C119.037 91.3401 118.701 91.6761 118.288 91.6761ZM127.224 90.3036C126.906 90.3036 126.611 90.0988 126.51 89.7791C126.385 89.3845 126.605 88.9636 127 88.8387C129.005 88.2056 130.947 87.3502 132.77 86.2937C133.129 86.0864 133.587 86.2087 133.794 86.5671C134.002 86.9256 133.879 87.3839 133.521 87.5912C131.602 88.7026 129.56 89.603 127.449 90.2686C127.374 90.2936 127.299 90.3036 127.224 90.3036ZM103.423 87.7098C103.296 87.7098 103.167 87.6773 103.049 87.6087C101.133 86.5022 99.3333 85.1822 97.6973 83.6861C97.3926 83.4064 97.3714 82.9331 97.6511 82.6271C97.9309 82.3212 98.4042 82.3012 98.7101 82.5809C100.265 84.0046 101.977 85.2596 103.799 86.3111C104.157 86.5184 104.28 86.9768 104.073 87.3352C103.934 87.5749 103.682 87.7098 103.423 87.7098ZM140.193 82.0264C140.012 82.0264 139.831 81.9615 139.688 81.8291C139.383 81.5494 139.362 81.0761 139.641 80.7701C141.066 79.2154 142.323 77.5045 143.375 75.6837C143.583 75.3253 144.041 75.2029 144.399 75.4102C144.758 75.6175 144.88 76.0758 144.673 76.4342C143.565 78.3487 142.245 80.1482 140.747 81.7829C140.598 81.9453 140.396 82.0264 140.193 82.0264ZM92.5347 76.8376C92.2762 76.8376 92.0252 76.704 91.8853 76.4642C90.7726 74.546 89.871 72.5042 89.2041 70.395C89.0793 70.0003 89.2978 69.5795 89.6924 69.4546C90.087 69.3297 90.5079 69.5483 90.6328 69.9429C91.2659 71.9472 92.1239 73.8891 93.1816 75.7124C93.3889 76.0708 93.2678 76.5291 92.9094 76.7364C92.792 76.8051 92.6621 76.8376 92.5347 76.8376ZM147.302 68.3819C147.248 68.3819 147.194 68.3756 147.139 68.3644C146.735 68.2757 146.48 67.8748 146.569 67.4715C147.019 65.4247 147.249 63.3154 147.249 61.1999V61.1337C147.248 60.7204 147.583 60.3832 147.996 60.3819C147.997 60.3819 147.997 60.3819 147.998 60.3819C148.412 60.3819 148.747 60.7166 148.748 61.1287V61.1962C148.748 63.4215 148.507 65.6407 148.032 67.7924C147.955 68.1433 147.645 68.3819 147.302 68.3819ZM88.5423 61.9817C88.1289 61.9817 87.793 61.6457 87.793 61.2324V61.1987C87.793 58.987 88.0315 56.7791 88.501 54.6386C88.5897 54.234 88.9906 53.9792 89.394 54.0667C89.7986 54.1553 90.0546 54.5549 89.9659 54.9596C89.5188 56.9951 89.2928 59.0944 89.2928 61.1987V61.2324C89.2916 61.647 88.9556 61.9817 88.5423 61.9817ZM146.611 52.9452C146.293 52.9452 145.998 52.7417 145.897 52.422C145.261 50.4176 144.401 48.4769 143.342 46.6549C143.133 46.2978 143.255 45.8382 143.613 45.6309C143.97 45.4223 144.429 45.5447 144.637 45.9019C145.751 47.8188 146.656 49.8606 147.324 51.9686C147.449 52.3633 147.23 52.7841 146.837 52.909C146.762 52.934 146.686 52.9452 146.611 52.9452ZM92.4998 47.1157C92.3724 47.1157 92.2438 47.0833 92.1264 47.0158C91.768 46.8085 91.6443 46.3515 91.8516 45.993C92.9568 44.0774 94.2756 42.2766 95.7717 40.6394C96.0514 40.3334 96.5247 40.3134 96.8307 40.5919C97.1366 40.8716 97.1579 41.3449 96.8781 41.6509C95.4557 43.2069 94.2007 44.9203 93.1504 46.7411C93.0105 46.9821 92.7595 47.1157 92.4998 47.1157ZM138.311 39.9912C138.132 39.9912 137.95 39.9263 137.807 39.7952C136.25 38.3728 134.536 37.1202 132.714 36.0699C132.356 35.8639 132.232 35.4056 132.439 35.0472C132.646 34.6887 133.104 34.5651 133.462 34.7724C135.379 35.8764 137.18 37.1939 138.817 38.6887C139.123 38.9672 139.144 39.4417 138.865 39.7477C138.717 39.9088 138.515 39.9912 138.311 39.9912ZM103.367 36.221C103.108 36.221 102.857 36.0874 102.719 35.8476C102.512 35.4892 102.633 35.0309 102.991 34.8236C104.909 33.7097 106.951 32.8068 109.059 32.1387C109.454 32.0138 109.875 32.2323 109.999 32.627C110.124 33.0216 109.906 33.4424 109.511 33.5673C107.507 34.2017 105.566 35.0609 103.743 36.1186C103.624 36.1873 103.494 36.221 103.367 36.221ZM124.654 32.9067C124.602 32.9067 124.547 32.9004 124.493 32.8892C122.463 32.4446 120.368 32.2198 118.27 32.2198H118.219C117.806 32.2198 117.47 31.8839 117.47 31.4705C117.47 31.0572 117.806 30.7213 118.219 30.7213H118.268C120.477 30.7213 122.677 30.9585 124.814 31.4256C125.219 31.5142 125.475 31.9139 125.386 32.3172C125.309 32.6682 124.999 32.9067 124.654 32.9067Z" fill="#262F5F"/>
<path d="M429.999 242.964C429.977 242.964 429.954 242.963 429.932 242.961C427.881 242.779 425.828 242.444 423.829 241.966C423.427 241.87 423.178 241.465 423.274 241.063C423.37 240.661 423.774 240.413 424.177 240.509C426.105 240.97 428.086 241.293 430.064 241.468C430.476 241.504 430.781 241.869 430.745 242.281C430.71 242.67 430.383 242.964 429.999 242.964ZM438.494 242.853C438.118 242.853 437.793 242.571 437.751 242.188C437.704 241.778 437.999 241.405 438.41 241.359C440.387 241.134 442.36 240.764 444.273 240.259C444.674 240.153 445.084 240.393 445.189 240.792C445.295 241.192 445.056 241.603 444.655 241.708C442.672 242.231 440.628 242.616 438.579 242.848C438.551 242.852 438.522 242.853 438.494 242.853ZM415.982 239.174C415.875 239.174 415.768 239.151 415.664 239.103C413.803 238.228 411.99 237.208 410.273 236.072C409.928 235.843 409.833 235.379 410.062 235.034C410.29 234.689 410.755 234.594 411.1 234.823C412.757 235.919 414.506 236.903 416.301 237.748C416.676 237.924 416.837 238.37 416.661 238.744C416.534 239.015 416.265 239.174 415.982 239.174ZM452.415 238.734C452.141 238.734 451.876 238.582 451.745 238.32C451.56 237.95 451.71 237.499 452.081 237.314C453.853 236.429 455.577 235.405 457.206 234.268C457.546 234.032 458.013 234.115 458.249 234.455C458.486 234.794 458.402 235.261 458.063 235.497C456.374 236.675 454.587 237.736 452.75 238.654C452.641 238.709 452.528 238.734 452.415 238.734ZM404.111 230.814C403.919 230.814 403.727 230.741 403.58 230.594C402.128 229.137 400.771 227.561 399.546 225.911C399.298 225.579 399.368 225.11 399.7 224.864C400.033 224.616 400.502 224.686 400.748 225.018C401.931 226.609 403.241 228.13 404.642 229.537C404.934 229.83 404.933 230.305 404.641 230.597C404.495 230.742 404.302 230.814 404.111 230.814ZM464.072 230.09C463.887 230.09 463.701 230.021 463.556 229.884C463.256 229.599 463.243 229.125 463.527 228.825C464.894 227.384 466.165 225.831 467.309 224.209C467.547 223.871 468.014 223.791 468.353 224.028C468.691 224.267 468.772 224.734 468.534 225.072C467.349 226.753 466.03 228.362 464.615 229.855C464.469 230.011 464.271 230.09 464.072 230.09ZM395.803 218.912C395.521 218.912 395.25 218.751 395.122 218.477C394.257 216.611 393.521 214.666 392.937 212.693C392.819 212.295 393.045 211.878 393.443 211.761C393.838 211.644 394.257 211.87 394.374 212.267C394.937 214.17 395.647 216.047 396.482 217.846C396.656 218.222 396.493 218.667 396.117 218.842C396.015 218.889 395.908 218.912 395.803 218.912ZM472.091 217.986C471.991 217.986 471.89 217.966 471.792 217.924C471.413 217.759 471.239 217.317 471.405 216.937C472.199 215.115 472.865 213.221 473.383 211.308C473.492 210.908 473.903 210.672 474.302 210.781C474.702 210.889 474.938 211.3 474.829 211.7C474.291 213.684 473.602 215.649 472.779 217.537C472.655 217.818 472.38 217.986 472.091 217.986ZM392.083 204.88C391.699 204.88 391.372 204.587 391.337 204.197L391.333 204.149C391.231 202.946 391.18 201.723 391.18 200.518C391.18 199.684 391.205 198.841 391.253 198.011C391.277 197.598 391.633 197.28 392.045 197.307C392.458 197.331 392.773 197.686 392.749 198.099C392.702 198.899 392.678 199.712 392.678 200.517C392.678 201.679 392.728 202.859 392.827 204.025L392.831 204.062C392.867 204.474 392.563 204.838 392.151 204.875C392.128 204.879 392.105 204.88 392.083 204.88ZM475.477 203.865C475.462 203.865 475.447 203.865 475.432 203.863C475.019 203.838 474.704 203.484 474.729 203.07C474.778 202.256 474.803 201.43 474.803 200.612C474.803 199.448 474.753 198.267 474.654 197.104L474.647 197.022C474.612 196.61 474.918 196.247 475.33 196.212C475.741 196.176 476.106 196.483 476.141 196.895L476.148 196.976C476.25 198.183 476.302 199.406 476.302 200.612C476.302 201.459 476.275 202.316 476.225 203.159C476.202 203.559 475.871 203.865 475.477 203.865ZM393.365 190.417C393.3 190.417 393.235 190.409 393.169 190.391C392.769 190.284 392.533 189.872 392.641 189.472C393.177 187.488 393.865 185.522 394.686 183.634C394.851 183.254 395.293 183.081 395.672 183.245C396.051 183.41 396.225 183.852 396.06 184.231C395.268 186.053 394.604 187.949 394.087 189.863C393.997 190.196 393.695 190.417 393.365 190.417ZM473.813 189.361C473.489 189.361 473.192 189.15 473.095 188.825C472.529 186.923 471.818 185.046 470.982 183.248C470.807 182.873 470.97 182.427 471.345 182.253C471.72 182.078 472.166 182.24 472.34 182.616C473.208 184.481 473.945 186.426 474.531 188.399C474.648 188.796 474.422 189.214 474.026 189.331C473.955 189.351 473.884 189.361 473.813 189.361ZM399.534 177.271C399.386 177.271 399.235 177.227 399.103 177.135C398.765 176.896 398.684 176.429 398.922 176.091C400.106 174.409 401.422 172.799 402.836 171.304C403.121 171.003 403.595 170.991 403.895 171.276C404.196 171.56 404.209 172.035 403.924 172.335C402.56 173.777 401.289 175.33 400.147 176.954C400.001 177.161 399.769 177.271 399.534 177.271ZM467.31 176.383C467.082 176.383 466.856 176.28 466.708 176.081C465.524 174.49 464.213 172.971 462.809 171.567C462.517 171.274 462.517 170.8 462.809 170.508C463.103 170.215 463.576 170.215 463.87 170.509C465.324 171.965 466.683 173.54 467.91 175.187C468.157 175.519 468.088 175.989 467.756 176.236C467.622 176.335 467.466 176.383 467.31 176.383ZM409.815 167.021C409.579 167.021 409.346 166.91 409.2 166.701C408.963 166.361 409.045 165.894 409.385 165.657C411.071 164.478 412.858 163.414 414.695 162.495C415.065 162.309 415.515 162.46 415.7 162.83C415.885 163.199 415.735 163.65 415.366 163.835C413.593 164.722 411.87 165.748 410.244 166.886C410.112 166.977 409.962 167.021 409.815 167.021ZM456.759 166.41C456.618 166.41 456.474 166.37 456.347 166.287C454.69 165.191 452.937 164.21 451.143 163.367C450.768 163.191 450.607 162.745 450.783 162.37C450.959 161.996 451.405 161.834 451.78 162.011C453.641 162.883 455.455 163.901 457.173 165.036C457.519 165.265 457.614 165.73 457.386 166.074C457.24 166.293 457.001 166.41 456.759 166.41ZM422.976 160.908C422.644 160.908 422.341 160.686 422.252 160.351C422.145 159.951 422.384 159.54 422.784 159.434C424.765 158.909 426.81 158.523 428.859 158.288C429.27 158.242 429.642 158.535 429.689 158.947C429.737 159.359 429.442 159.73 429.03 159.778C427.053 160.005 425.08 160.377 423.168 160.884C423.104 160.899 423.04 160.908 422.976 160.908ZM443.438 160.634C443.38 160.634 443.322 160.628 443.263 160.614C441.335 160.155 439.353 159.834 437.376 159.66C436.964 159.624 436.659 159.261 436.695 158.849C436.732 158.436 437.096 158.13 437.507 158.168C439.558 158.348 441.612 158.68 443.611 159.157C444.013 159.253 444.262 159.657 444.167 160.06C444.085 160.402 443.777 160.634 443.438 160.634Z" fill="#262F5F"/>
</svg>
